<svg width="48" height="48" viewBox="0 0 48 48" fill="none" xmlns="http://www.w3.org/2000/svg">
<path fill-rule="evenodd" clip-rule="evenodd" d="M0 1.17647C0 0.526724 0.511675 0 1.14286 0H46.8571C47.4883 0 48 0.526724 48 1.17647V17.6471C48 18.2968 46.8571 20 46.8571 20C46.8571 20 45.7143 18.2968 45.7143 17.6471C45.7143 17.6471 45.7143 4.70588 45.7143 3.52941C45.7143 2.35294 42.2857 2.35294 42.2857 3.52941C42.2857 4.70588 42.2857 17.6471 42.2857 17.6471C42.2857 18.2968 41.1429 20 41.1429 20C41.1429 20 40 18.2968 40 17.6471C40 17.6471 40 4.70588 40 3.52941C40 2.35294 36.5714 2.35294 36.5714 3.52941C36.5714 4.70588 36.5714 17.6471 36.5714 17.6471C36.5714 18.2968 35.4286 20 35.4286 20C35.4286 20 34.2857 18.2968 34.2857 17.6471C34.2857 17.6471 34.2857 4.70588 34.2857 3.52941C34.2857 2.35294 30.8571 2.35294 30.8571 3.52941C30.8571 4.70588 30.8571 17.6471 30.8571 17.6471C30.8571 18.2968 29.7143 20 29.7143 20C29.7143 20 28.5714 18.2968 28.5714 17.6471C28.5714 17.6471 28.5714 4.70588 28.5714 3.52941C28.5714 2.35294 25.1429 2.35294 25.1429 3.52941C25.1429 4.70588 25.1429 17.6471 25.1429 17.6471C25.1429 18.2968 24 20 24 20C24 20 22.8571 18.2968 22.8571 17.6471C22.8571 17.6471 22.8571 4.70588 22.8571 3.52941C22.8571 2.35294 19.4286 2.35294 19.4286 3.52941C19.4286 4.70588 19.4286 17.6471 19.4286 17.6471C19.4286 18.2968 18.2857 20 18.2857 20C18.2857 20 17.1429 18.2968 17.1429 17.6471C17.1429 17.6471 17.1429 4.70588 17.1429 3.52941C17.1429 2.35294 13.7143 2.35294 13.7143 3.52941C13.7143 4.70588 13.7143 17.6471 13.7143 17.6471C13.7143 18.2968 12.5714 20 12.5714 20C12.5714 20 11.4286 18.2968 11.4286 17.6471C11.4286 17.6471 11.4286 4.70588 11.4286 3.52941C11.4286 2.35294 8 2.35294 8 3.52941C8 4.70588 8 17.6471 8 17.6471C8 18.2968 6.85714 20 6.85714 20C6.85714 20 5.71429 18.2968 5.71429 17.6471C5.71429 17.6471 5.71429 4.70588 5.71429 3.52941C5.71429 2.35294 2.28571 2.35294 2.28571 3.52941C2.28571 4.70588 2.28571 17.6471 2.28571 17.6471C2.28571 18.2968 1.14286 20 1.14286 20C1.14286 20 0 18.2968 0 17.6471V1.17647Z" fill="#F2E1B4"/>
<path fill-rule="evenodd" clip-rule="evenodd" d="M10.5769 44.6045C9.38951 45.6539 7.46434 45.6539 6.27692 44.6045C5.0895 43.5551 5.0895 41.8536 6.27692 40.8042C7.46434 39.7548 9.38951 39.7548 10.5769 40.8042C11.7643 41.8536 11.7643 43.5551 10.5769 44.6045ZM12.2728 46.1033C13.0102 45.4517 13.4916 44.6594 13.717 43.8242C13.9424 42.989 17.5422 39.9133 20.3177 37.4434C20.9133 36.9135 20.9173 36.9135 21.5169 36.9135C23.9153 37.4434 44.0063 43.7047 44.0063 43.7047C44.6314 43.8981 48 43.7642 48 43.7642C48 43.7642 45.4237 41.8974 44.7986 41.704C44.7986 41.704 26.8403 36.4963 26.4746 35.3133C26.8403 34.3766 44.8945 26.7136 44.8945 26.7136C45.4985 26.4734 48 24.7806 48 24.7806C48 24.7806 44.5143 24.5404 43.9103 24.7806C43.9103 24.7806 23.9475 33.1858 21.5491 33.7157C20.9495 33.7157 20.9495 33.7157 20.3499 33.1858C18.4849 31.5375 13.9252 26.3885 13.6894 25.5893C13.4536 24.7901 12.9814 24.0341 12.2728 23.4079C10.1488 21.5307 6.70506 21.5307 4.58102 23.4079C2.45698 25.2851 2.45698 28.3287 4.58102 30.2059C6.70506 32.0831 10.1488 32.0831 12.2728 30.2059C12.7558 29.7791 13.1289 29.2919 13.3922 28.7719C13.3922 28.7719 17.4857 32.1627 17.2393 35.3133C17.0144 38.1899 13.4452 40.8474 13.4452 40.8474C13.1799 40.2868 12.7891 39.7616 12.2728 39.3054C10.1488 37.4281 6.70506 37.4281 4.58102 39.3054C2.71234 40.9569 3.79909 43.5903 1.77879 45.5645C0.77403 46.5464 4.27065e-05 46.7401 1.51186e-09 47.5617C-7.00559e-05 48.9094 2.43465 46.7367 3.28598 46.5464C4.88726 46.1885 5.17454 46.5306 6.80281 47.0374C8.59671 47.5957 11.0975 47.1421 12.2728 46.1033ZM10.5769 28.7071C9.38951 29.7565 7.46434 29.7565 6.27692 28.7071C5.0895 27.6576 5.0895 25.9562 6.27692 24.9067C7.46434 23.8573 9.38951 23.8573 10.5769 24.9067C11.7643 25.9562 11.7643 27.6576 10.5769 28.7071Z" fill="#F2E1B4"/>
</svg>
